<?xml version="1.0" standalone="no"?>
<!DOCTYPE svg PUBLIC "-//W3C//DTD SVG 20010904//EN"
 "http://www.w3.org/TR/2001/REC-SVG-20010904/DTD/svg10.dtd">
<svg version="1.0" xmlns="http://www.w3.org/2000/svg"
 width="1200.000000pt" height="1200.000000pt" viewBox="0 0 1200.000000 1200.000000"
 preserveAspectRatio="xMidYMid meet">

<g transform="translate(0.000000,1200.000000) scale(0.100000,-0.100000)"
fill="#000000" stroke="none">
<path d="M8390 11114 c-19 -2 -80 -9 -135 -15 -578 -61 -1146 -319 -1538 -699
-205 -197 -339 -383 -468 -645 -87 -178 -136 -313 -179 -487 -57 -231 -65
-315 -64 -643 0 -278 2 -311 27 -445 72 -401 218 -740 453 -1050 280 -370 683
-650 1183 -824 593 -207 1354 -199 1956 19 677 246 1166 700 1429 1327 135
322 189 603 189 983 0 315 -35 549 -124 820 -48 145 -184 425 -269 555 -388
591 -1033 975 -1826 1086 -104 14 -554 27 -634 18z m430 -1459 c175 -39 331
-121 460 -242 189 -178 296 -383 337 -648 19 -126 12 -333 -16 -456 -73 -319
-270 -577 -546 -714 -186 -92 -389 -127 -604 -105 -267 28 -457 117 -632 297
-215 221 -309 464 -309 798 0 315 95 570 290 779 159 170 348 267 596 306 85
13 335 4 424 -15z"/>
<path d="M1046 10898 c-14 -20 -16 -263 -16 -2385 l0 -2362 23 -27 23 -26
1959 11 c1078 6 2081 11 2228 11 l268 0 24 25 25 24 0 694 c0 669 -1 696 -19
718 l-19 24 -1441 3 -1441 2 0 1645 c0 1615 0 1644 -19 1655 -13 7 -281 10
-800 10 l-780 0 -15 -22z"/>
<path d="M3125 5830 c-605 -59 -1128 -270 -1556 -628 -362 -304 -639 -784
-744 -1289 -97 -469 -58 -1033 100 -1459 222 -596 615 -1028 1190 -1309 427
-209 838 -290 1334 -265 203 11 288 21 466 56 787 155 1398 654 1709 1397 160
381 237 780 261 1355 l5 132 -1310 0 -1310 0 0 -630 0 -630 505 0 c397 0 505
-3 505 -12 0 -20 -134 -143 -209 -192 -297 -196 -633 -251 -989 -160 -388 98
-704 433 -802 848 -83 351 -21 732 166 1013 68 103 212 252 302 312 290 195
690 247 994 130 190 -74 396 -258 514 -461 21 -37 42 -68 46 -68 7 0 1053 531
1155 587 l63 34 -26 52 c-87 170 -242 384 -383 526 -358 360 -777 567 -1313
647 -122 18 -540 27 -673 14z"/>
<path d="M8390 5834 c-19 -2 -80 -9 -135 -15 -578 -61 -1146 -319 -1538 -699
-205 -197 -339 -383 -468 -645 -87 -178 -136 -313 -179 -487 -57 -231 -65
-315 -64 -643 0 -278 2 -311 27 -445 72 -401 218 -740 453 -1050 280 -370 683
-650 1183 -824 593 -207 1354 -199 1956 19 677 246 1166 700 1429 1327 135
322 189 603 189 983 0 315 -35 549 -124 820 -48 145 -184 425 -269 555 -388
591 -1033 975 -1826 1086 -104 14 -554 27 -634 18z m430 -1459 c175 -39 331
-121 460 -242 189 -178 296 -383 337 -648 19 -126 12 -333 -16 -456 -73 -319
-270 -577 -546 -714 -186 -92 -389 -127 -604 -105 -267 28 -457 117 -632 297
-215 221 -309 464 -309 798 0 315 95 570 290 779 159 170 348 267 596 306 85
13 335 4 424 -15z"/>
</g>
</svg>
